PathFileType	4	(X/Y/Z)	C:\Users\Caesar\Desktop\毕业设计\1-评估老年人缺少的力\Data\s2\T_01_fixed.trc	Maker trajectories (.TRC) by Lee-Son ToolBox																																																																											
DataRate	CameraRate	NumFrames	NumMarkers	Units	OrigDataRate	OrigDataStartFrame	OrigNumFrames																																																																								
100	100	8	26	mm	100	376	1000																																																																								
Frame#	Time	HEAD			C7			T10			STERN			LSHO			LELB			RSHO			RELB			LASI			RASI			LPSI			RPSI			LHIP			LTHI			LKNE			LTIB			LANK			LHEE			LTOE			RHIP			RTHI			RKNE			RTIB			RANK			RHEE			RTOE		
		X1	Y1	Z1	X2	Y2	Z2	X3	Y3	Z3	X4	Y4	Z4	X5	Y5	Z5	X6	Y6	Z6	X7	Y7	Z7	X8	Y8	Z8	X9	Y9	Z9	X10	Y10	Z10	X11	Y11	Z11	X12	Y12	Z12	X13	Y13	Z13	X14	Y14	Z14	X15	Y15	Z15	X16	Y16	Z16	X17	Y17	Z17	X18	Y18	Z18	X19	Y19	Z19	X20	Y20	Z20	X21	Y21	Z21	X22	Y22	Z22	X23	Y23	Z23	X24	Y24	Z24	X25	Y25	Z25	X26	Y26	Z26
																																																																															
376	3.75	1068.8	1691.94	1561.53	857.863	1551.16	1544.62	770.433	1393.06	1557.53	1007.03	1397.78	1545.55	901.564	1527.53	1402.21	977.074	1212.33	1269.57	916.16	1526.56	1716.98	952.147	1177.16	1800.09	920.702	1097.03	1415.09	929.179	1089.12	1667.91	757.243	1141.88	1505.03	771.974	1128.55	1618.58	830.027	1015.11	1379.08	870.901	749.056	1420.37	791.411	608.866	1428.94	775.326	414.565	1453.45	723.711	261.825	1479.45	675.668	231.981	1490.69	900.705	230.95	1529.24	900.28	1016.96	1710.38	1004.49	898.645	1688.12	1037.14	681.452	1667.81	1033.72	579.618	1677.62	921.192	319.834	1672.88	869.532	298.961	1655.32	1090.08	243.397	1634.07
377	3.76	1068.21	1689.78	1561.99	857.527	1548.76	1544.22	769.916	1390.75	1556.58	1006.49	1395.13	1545.58	902.01	1525.43	1402.3	977.614	1210.75	1267.78	914.749	1524.13	1716.78	951.977	1174.9	1800.34	918.967	1094.28	1414.37	928.24	1086.51	1667.35	755.987	1139.7	1505.05	770.908	1126.32	1618.57	827.356	1012.97	1379.09	863.891	746.866	1420.02	781.746	608.078	1428.2	763.113	413.754	1453.38	709.301	261.804	1479.66	661.042	232.104	1490.91	886.099	230.473	1529.28	899.802	1015.15	1710.34	1004.63	897.925	1687.33	1038.45	680.481	1666.96	1041.48	578.391	1676.87	950.523	310.646	1672.5	900.646	285.978	1654.9	1124.19	247.123	1632.99
378	3.77	1067.64	1687.34	1562.41	857.272	1546.02	1543.83	769.42	1388.05	1555.69	1005.89	1392.05	1545.67	902.412	1522.9	1402.35	977.985	1208.57	1266.04	913.355	1521.31	1716.66	951.8	1172.15	1800.63	917.419	1091.28	1413.71	927.383	1083.45	1666.84	754.871	1137.09	1505.07	769.905	1123.64	1618.56	825.045	1010.5	1379.09	857.512	744.55	1419.77	772.848	607.101	1427.59	751.316	412.845	1453.4	694.975	261.831	1479.9	646.457	232.296	1491.16	871.52	229.916	1529.31	899.273	1012.71	1710.29	1004.28	896.138	1686.69	1038.87	678.605	1666.37	1048.36	576.742	1676.26	980.003	302.482	1671.66	932.208	274.091	1654.06	1157.41	252.58	1631.46
379	3.78	1067.1	1684.65	1562.78	857.095	1543	1543.48	768.953	1385.01	1554.87	1005.24	1388.6	1545.81	902.761	1520	1402.39	978.172	1205.86	1264.41	912.003	1518.14	1716.65	951.638	1168.98	1800.9	916.142	1088.08	1413.14	926.63	1080.03	1666.39	753.943	1134.12	1505.07	768.997	1120.59	1618.54	823.171	1007.76	1379.07	851.743	742.126	1419.67	764.649	605.966	1427.14	739.884	411.88	1453.51	680.731	261.931	1480.19	631.906	232.582	1491.45	857.012	229.265	1529.31	898.718	1009.73	1710.25	1003.44	893.33	1686.22	1038.53	675.908	1666.05	1054.38	574.74	1675.79	1009.2	295.48	1670.28	963.733	263.48	1652.72	1189.26	259.732	1629.48
380	3.79	1066.59	1681.76	1563.11	856.978	1539.76	1543.18	768.525	1381.7	1554.12	1004.57	1384.9	1546	903.051	1516.82	1402.4	978.168	1202.68	1262.97	910.712	1514.71	1716.73	951.513	1165.44	1801.08	915.219	1084.74	1412.68	926.008	1076.36	1666.04	753.254	1130.84	1505.03	768.219	1117.25	1618.5	821.803	1004.78	1379.02	846.56	739.611	1419.71	757.075	604.709	1426.85	728.765	410.907	1453.68	666.565	262.129	1480.48	617.381	232.99	1491.73	842.604	228.522	1529.26	898.173	1006.29	1710.22	1002.16	889.587	1685.97	1037.58	672.506	1665.99	1059.59	572.447	1675.45	1037.58	289.694	1668.31	994.628	254.259	1650.82	1219.24	268.382	1627.07
381	3.8	1066.13	1678.72	1563.42	856.903	1536.34	1542.94	768.149	1378.19	1553.46	1003.91	1381.05	1546.25	903.281	1513.44	1402.43	977.98	1199.12	1261.76	909.487	1511.08	1716.9	951.443	1161.6	1801.16	914.724	1081.29	1412.35	925.543	1072.56	1665.83	752.853	1127.3	1504.94	767.612	1113.68	1618.42	820.998	1001.61	1378.96	841.934	737.019	1419.92	750.059	603.37	1426.7	717.912	409.97	1453.9	652.475	262.459	1480.75	602.874	233.558	1492	828.306	227.699	1529.16	897.688	1002.49	1710.24	1000.55	885.043	1685.97	1036.23	668.538	1666.13	1064.03	569.92	1675.17	1064.56	285.094	1665.7	1024.22	246.47	1648.32	1246.87	278.151	1624.27
382	3.81	1065.71	1675.57	1563.7	856.843	1532.81	1542.77	767.839	1374.53	1552.89	1003.3	1377.13	1546.54	903.451	1509.94	1402.47	977.625	1195.25	1260.82	908.326	1507.33	1717.16	951.438	1157.55	1801.09	914.715	1077.76	1412.18	925.26	1068.71	1665.79	752.785	1123.55	1504.79	767.218	1109.95	1618.31	820.789	998.259	1378.87	837.848	734.365	1420.26	743.557	601.986	1426.66	707.299	409.116	1454.13	638.46	262.957	1480.96	588.385	234.33	1492.21	814.102	226.825	1529.01	897.322	998.432	1710.33	998.741	879.882	1686.23	1034.69	664.163	1666.39	1067.81	567.211	1674.89	1089.53	281.562	1662.47	1051.79	240.083	1645.2	1271.66	288.491	1621.11
383	3.82	1065.33	1672.35	1563.97	856.777	1529.22	1542.67	767.615	1370.75	1552.4	1002.78	1373.26	1546.88	903.571	1506.38	1402.53	977.127	1191.15	1260.18	907.215	1503.52	1717.47	951.501	1153.39	1800.86	915.229	1074.17	1412.19	925.184	1064.9	1665.97	753.084	1119.66	1504.61	767.076	1106.13	1618.16	821.186	994.772	1378.77	834.298	731.661	1420.71	737.556	600.589	1426.7	696.922	408.389	1454.34	624.531	263.667	1481.06	573.924	235.365	1492.31	799.958	225.937	1528.83	897.145	994.239	1710.51	996.949	874.336	1686.77	1033.17	659.552	1666.66	1071	564.359	1674.52	1111.89	278.908	1658.68	1076.62	235.006	1641.49	1293.22	298.716	1617.67
